<svg width="16" height="12" viewBox="0 0 16 12" fill="none" xmlns="http://www.w3.org/2000/svg">
<path fill-rule="evenodd" clip-rule="evenodd" d="M7.99987 8.84441C9.37444 8.84441 10.4888 7.7301 10.4888 6.35552C10.4888 4.98095 9.37444 3.86663 7.99987 3.86663C6.62529 3.86663 5.51098 4.98095 5.51098 6.35552C5.51098 7.7301 6.62529 8.84441 7.99987 8.84441ZM7.99987 8.22219C9.0308 8.22219 9.86654 7.38646 9.86654 6.35552C9.86654 5.32459 9.0308 4.48886 7.99987 4.48886C6.96894 4.48886 6.1332 5.32459 6.1332 6.35552C6.1332 7.38646 6.96894 8.22219 7.99987 8.22219Z" fill="white"/>
<path fill-rule="evenodd" clip-rule="evenodd" d="M10.9967 1.37775C10.2511 0.692332 9.5641 0.133301 7.9778 0.133301C6.3915 0.133301 5.70453 0.692332 4.95888 1.37775H2.39987C1.36894 1.37775 0.533203 2.21348 0.533203 3.24441V9.46663C0.533203 10.4976 1.36894 11.3333 2.39987 11.3333H13.5999C14.6308 11.3333 15.4665 10.4976 15.4665 9.46663V3.24441C15.4665 2.21348 14.6308 1.37775 13.5999 1.37775H10.9967ZM10.7534 1.99997L10.6881 1.93964C10.626 1.8822 10.5658 1.82659 10.5085 1.77441C10.2745 1.56109 10.0668 1.38384 9.84275 1.23658C9.42052 0.959018 8.89201 0.755523 7.9778 0.755523C7.06359 0.755523 6.53508 0.959018 6.11285 1.23658C5.88883 1.38384 5.68108 1.56109 5.44705 1.77441C5.38969 1.82669 5.32979 1.88208 5.26753 1.93963L5.20224 1.99997H2.39987C1.71258 1.99997 1.15543 2.55712 1.15543 3.24441V9.46663C1.15543 10.1539 1.71258 10.7111 2.39987 10.7111H13.5999C14.2872 10.7111 14.8443 10.1539 14.8443 9.46663V3.24441C14.8443 2.55712 14.2872 1.99997 13.5999 1.99997H10.7534Z" fill="white"/>
</svg>
